<svg xmlns="http://www.w3.org/2000/svg" viewBox="0 0 960 540" role="img">
  <defs>
    <linearGradient id="sky" x1="0" y1="0" x2="0" y2="1"><stop offset="0" stop-color="#d7e2d8"/><stop offset="1" stop-color="#ecd7b2"/></linearGradient>
    <filter id="paper"><feTurbulence type="fractalNoise" baseFrequency="0.012" numOctaves="4" seed="17"/><feColorMatrix type="saturate" values="0.25"/><feBlend mode="multiply" in2="SourceGraphic"/></filter>
    <filter id="soft"><feGaussianBlur stdDeviation="1.3"/></filter>
    <style>
      svg { background: url(#sky); }
      .bg { fill:url(#sky); }
      .river { fill:#6da398; opacity:.82; }
      .bank,.ground { fill:#91825f; opacity:.84; }
      .hill,.mountain path { fill:#91825f; opacity:.78; }
      .lane,.path { fill:none; stroke:#d9b98a; stroke-width:34; stroke-linecap:round; opacity:.72; }
      .houses rect { fill:#b97957; opacity:.78; stroke:#5d463c; stroke-width:3; }
      .houses polygon { fill:#714e3d; opacity:.78; stroke:#5d463c; stroke-width:3; }
      .arcade rect { fill:#b87a58; opacity:.8; stroke:#563f36; stroke-width:3; }
      .arcade polygon { fill:#6a4d3d; opacity:.82; stroke:#563f36; stroke-width:3; }
      .house-large rect { fill:#a96953; opacity:.78; stroke:#4b3b36; stroke-width:4; }
      .house-large polygon { fill:#6d4a3d; opacity:.8; stroke:#4b3b36; stroke-width:4; }
      .figures circle,.figure-alone circle { fill:#2f3f48; opacity:.88; }
      .figures path,.figure-alone path { fill:#344d59; opacity:.76; }
      .arm,.cable,.wave,.rain { fill:none; stroke:#624d40; stroke-width:5; stroke-linecap:round; opacity:.62; }
      .mist { fill:none; stroke:#ffffff; stroke-width:42; opacity:.28; filter:url(#soft); }
      .trees circle { fill:#5f7f5d; opacity:.58; } .trees rect { fill:#70543d; opacity:.58; }
      .tunnel { fill:#27323a; opacity:.78; } .box,.buckets rect { fill:#c2a15d; opacity:.75; stroke:#5e4d36; stroke-width:3; }
      .rainwash { fill:#94aab0; opacity:.18; }
    </style>
  </defs>
  <rect class="bg" width="960" height="540"/>
  <g filter="url(#paper)">
      <path class="ground" d="M0 395 C190 335 325 390 480 350 C650 306 760 326 960 292 L960 540 L0 540 Z"/>
      <g class="house-large" transform="translate(540 178)"><rect x="0" y="72" width="180" height="160"/><polygon points="-18,72 90,0 198,72"/><rect x="58" y="148" width="42" height="84"/></g>
      <g class="figures"><circle cx="325" cy="326" r="9"/><path d="M325 338 c-25 42-30 76-12 116 h28 c14-38 8-76-16-116"/><circle cx="370" cy="345" r="6"/><path d="M370 353 l-11 36 h23 z"/><circle cx="408" cy="351" r="5"/><path d="M408 358 l-10 32 h20 z"/></g>
      <path class="river" d="M0 470 C210 435 330 520 520 470 C690 426 820 410 960 445 L960 540 L0 540 Z"/>
  </g>
</svg>
