<svg xmlns="http://www.w3.org/2000/svg" viewBox="0 0 960 540" role="img">
  <defs>
    <linearGradient id="sky" x1="0" y1="0" x2="0" y2="1"><stop offset="0" stop-color="#d4dfd8"/><stop offset="1" stop-color="#efd8b5"/></linearGradient>
    <filter id="paper"><feTurbulence type="fractalNoise" baseFrequency="0.012" numOctaves="4" seed="17"/><feColorMatrix type="saturate" values="0.25"/><feBlend mode="multiply" in2="SourceGraphic"/></filter>
    <filter id="soft"><feGaussianBlur stdDeviation="1.3"/></filter>
    <style>
      svg { background: url(#sky); }
      .bg { fill:url(#sky); }
      .river { fill:#6b9b98; opacity:.82; }
      .bank,.ground { fill:#6e8358; opacity:.84; }
      .hill,.mountain path { fill:#6e8358; opacity:.78; }
      .lane,.path { fill:none; stroke:#d9b98a; stroke-width:34; stroke-linecap:round; opacity:.72; }
      .houses rect { fill:#b97957; opacity:.78; stroke:#5d463c; stroke-width:3; }
      .houses polygon { fill:#714e3d; opacity:.78; stroke:#5d463c; stroke-width:3; }
      .arcade rect { fill:#b87a58; opacity:.8; stroke:#563f36; stroke-width:3; }
      .arcade polygon { fill:#6a4d3d; opacity:.82; stroke:#563f36; stroke-width:3; }
      .house-large rect { fill:#a96953; opacity:.78; stroke:#4b3b36; stroke-width:4; }
      .house-large polygon { fill:#6d4a3d; opacity:.8; stroke:#4b3b36; stroke-width:4; }
      .figures circle,.figure-alone circle { fill:#2f3f48; opacity:.88; }
      .figures path,.figure-alone path { fill:#344d59; opacity:.76; }
      .arm,.cable,.wave,.rain { fill:none; stroke:#654839; stroke-width:5; stroke-linecap:round; opacity:.62; }
      .mist { fill:none; stroke:#ffffff; stroke-width:42; opacity:.28; filter:url(#soft); }
      .trees circle { fill:#5f7f5d; opacity:.58; } .trees rect { fill:#70543d; opacity:.58; }
      .tunnel { fill:#27323a; opacity:.78; } .box,.buckets rect { fill:#c2a15d; opacity:.75; stroke:#5e4d36; stroke-width:3; }
      .rainwash { fill:#94aab0; opacity:.18; }
    </style>
  </defs>
  <rect class="bg" width="960" height="540"/>
  <g filter="url(#paper)">
      <path class="hill" d="M0 540 L0 310 C150 255 235 200 360 145 C505 82 650 58 960 42 L960 540 Z"/>
      <ellipse class="tunnel" cx="275" cy="405" rx="105" ry="92"/>
      <path class="path" d="M310 540 C340 490 375 462 430 426 C500 380 560 340 640 280"/>
      <g class="figures"><circle cx="390" cy="420" r="8"/><path d="M390 430 l-13 45 h28 z"/><circle cx="425" cy="410" r="6"/><path d="M425 417 l-10 32 h20 z"/><path class="arm" d="M398 438 C408 432 416 427 424 420"/></g>
      <path class="mist" d="M90 175 C255 118 380 180 520 135 S780 92 940 136"/>
  </g>
</svg>
